<svg xmlns="http://www.w3.org/2000/svg" width="58.356" height="56" viewBox="0 0 58.356 56">
  <g id="Tilda_Icons_27bu_1" transform="translate(0)">
    <path id="Контур_39692" data-name="Контур 39692" d="M56.458,23.741a.85.85,0,1,0-1.653.394,25.4,25.4,0,0,1,.674,5.884c0,14.5-12.062,26.3-26.889,26.3S1.7,44.52,1.7,30.019s12.062-26.3,26.889-26.3A27.2,27.2,0,0,1,44.9,9.121a.85.85,0,1,0,1.012-1.365A28.879,28.879,0,0,0,28.589,2.018C12.825,2.018,0,14.579,0,30.019s12.825,28,28.589,28,28.589-12.561,28.589-28A27.1,27.1,0,0,0,56.458,23.741Z" transform="translate(0 -2.018)" fill="#fd7d00"/>
    <path id="Контур_39693" data-name="Контур 39693" d="M36,46.885a.851.851,0,0,1-.6-.249L19.459,30.7a.85.85,0,0,1,1.2-1.2l15.3,15.3,28.909-32.38a.85.85,0,0,1,1.268,1.132L36.633,46.6a.849.849,0,0,1-.61.284Z" transform="translate(-8 -6.231)" fill="#fd7d00"/>
  </g>
</svg>
