<svg xmlns="http://www.w3.org/2000/svg" width="56.074" height="56.336" viewBox="0 0 56.074 56.336">
  <g id="Tilda_Icons_17ked_kid" transform="translate(0)">
    <path id="Контур_39785" data-name="Контур 39785" d="M60.894,39.1a8,8,0,0,0-7.782-7.985A21.875,21.875,0,0,0,33.079,17.258a5.763,5.763,0,0,0,1.474-3.146c.059-2.335-1.4-3.188-2.472-3.81-.969-.565-1.434-.877-1.436-1.809a2.028,2.028,0,0,1,2.1-2.022.931.931,0,0,0-.056-1.861A3.846,3.846,0,0,0,28.784,8.5a3.761,3.761,0,0,0,2.36,3.412c1.067.622,1.577.973,1.548,2.155-.024.887-1.314,2.432-2.284,3.318A21.9,21.9,0,0,0,12.451,31.12a7.988,7.988,0,0,0,0,15.96,21.838,21.838,0,0,0,40.659.007A8,8,0,0,0,60.894,39.1Zm-54.213,0a6.139,6.139,0,0,1,5.111-6.04,21.74,21.74,0,0,0,0,12.088A6.145,6.145,0,0,1,6.681,39.1Zm26.1,19.987A19.986,19.986,0,1,1,52.768,39.1,20.008,20.008,0,0,1,32.782,59.082ZM53.765,45.167a21.74,21.74,0,0,0,0-12.137,6.129,6.129,0,0,1,0,12.137Z" transform="translate(-4.82 -4.609)" fill="#fd7d00"/>
    <path id="Контур_39786" data-name="Контур 39786" d="M36.5,53.733a.931.931,0,1,0,1.862,0,4.327,4.327,0,0,0-8.654,0,.931.931,0,1,0,1.862,0,2.465,2.465,0,0,1,4.93,0Z" transform="translate(-14.265 -21.608)" fill="#fd7d00"/>
    <path id="Контур_39787" data-name="Контур 39787" d="M60.065,49.408a4.331,4.331,0,0,0-4.327,4.325.931.931,0,0,0,1.862,0,2.465,2.465,0,0,1,4.93,0,.931.931,0,0,0,1.862,0A4.331,4.331,0,0,0,60.065,49.408Z" transform="translate(-24.141 -21.608)" fill="#fd7d00"/>
    <path id="Контур_39788" data-name="Контур 39788" d="M52.692,66.259a.931.931,0,0,0-.931.931,7.768,7.768,0,1,1-15.535,0,.931.931,0,0,0-1.862,0,9.629,9.629,0,1,0,19.259,0A.931.931,0,0,0,52.692,66.259Z" transform="translate(-16.031 -28.002)" fill="#fd7d00"/>
  </g>
</svg>
