<svg id="Tilda_Icons_14ht_map" xmlns="http://www.w3.org/2000/svg" width="69.752" height="56" viewBox="0 0 69.752 56">
  <path id="Контур_39890" data-name="Контур 39890" d="M67.806,34.269h.012a5.949,5.949,0,0,0,0-11.9h-.005a5.949,5.949,0,0,0-.008,11.9Zm.007-9.645h0a3.7,3.7,0,0,1,0,7.39h-.008a3.7,3.7,0,0,1,.005-7.39Z" transform="translate(-17.59 -14.95)" fill="#fd7d00"/>
  <path id="Контур_39891" data-name="Контур 39891" d="M73.2,67.024,61.791,40.339l3.886-6.217a1.043,1.043,0,0,0,.1-.21,14.045,14.045,0,0,0-12-21.319h-.017A14.033,14.033,0,0,0,41.74,33.913a1.018,1.018,0,0,0,.078.158l2.109,3.543H16.942a1.125,1.125,0,0,0-1.036.684L3.627,67.024a1.127,1.127,0,0,0,1.036,1.57h67.5a1.125,1.125,0,0,0,1.034-1.57ZM43.758,32.894a11.78,11.78,0,0,1,10-18.046h.015A11.792,11.792,0,0,1,65.556,26.67v0a11.782,11.782,0,0,1-1.816,6.255.988.988,0,0,0-.1.2L53.519,49.319,46.864,38.143c-.008-.014-.015-.027-.024-.04L43.858,33.1A1.035,1.035,0,0,0,43.758,32.894ZM17.683,39.867h2.568c.161,3.215,2.917,4.425,4.949,5.312a5.981,5.981,0,0,1,2.516,1.536c.547.932.194,1.581-.877,3.067-.978,1.358-2.2,3.048-1.363,5.263,1.292,3.436,7.993,4.359,15.339,5.069,1.334.128,2.484.24,3.207.363,5.673.963,7.578,4.179,8.2,5.865H6.368Zm36.9,26.473C54.074,64.4,52.04,59.551,44.4,58.255c-.8-.136-1.99-.251-3.366-.384-4.071-.394-12.542-1.213-13.447-3.619-.389-1.032.158-1.87,1.082-3.152.985-1.366,2.333-3.238.993-5.525-.717-1.223-2.162-1.853-3.558-2.462-2.12-.924-3.438-1.634-3.583-3.246H45.267l7.26,12.192a1.126,1.126,0,0,0,.956.55H53.5a1.127,1.127,0,0,0,.956-.529l5.884-9.412L70.456,66.34Z" transform="translate(-3.537 -12.594)" fill="#fd7d00"/>
</svg>
