<svg id="Tilda_Icons_22sp_skiing" xmlns="http://www.w3.org/2000/svg" width="54.853" height="56.336" viewBox="0 0 54.853 56.336">
  <path id="Контур_39733" data-name="Контур 39733" d="M13.792,11.135H11.223V6.65a.932.932,0,1,0-1.864,0v4.485H6.79A.932.932,0,0,0,6.79,13H9.359V60.466a.932.932,0,1,0,1.864,0V13h2.569a.932.932,0,1,0,0-1.864Z" transform="translate(-5.858 -5.064)" fill="#fd7d00"/>
  <path id="Контур_39734" data-name="Контур 39734" d="M87.806,11.135H85.237V6.65a.932.932,0,0,0-1.864,0v4.485H80.8A.932.932,0,1,0,80.8,13h2.569V60.466a.932.932,0,1,0,1.864,0V13h2.569a.932.932,0,0,0,0-1.864Z" transform="translate(-33.885 -5.064)" fill="#fd7d00"/>
  <path id="Контур_39735" data-name="Контур 39735" d="M46.006,34.765a.932.932,0,0,0,.18-.265l9.219-21.319c.122-.283.228-.528-.285-6.272a2.382,2.382,0,0,0-3.908-1.689c-4.538,3.56-4.643,3.805-4.766,4.088L40.722,22.546,35,9.308c-.122-.283-.228-.528-4.766-4.088a2.382,2.382,0,0,0-3.908,1.69c-.513,5.745-.408,5.989-.285,6.272l9.366,21.659L26.011,56.564A.932.932,0,0,0,26.5,57.79l7.248,3.135a.932.932,0,0,0,1.225-.485l5.752-13.3,5.752,13.3a.93.93,0,0,0,1.225.485l7.248-3.135a.932.932,0,0,0,.485-1.225Zm2.1-24.6c.188-.188.981-.907,4.255-3.477a.524.524,0,0,1,.9.389c.371,4.147.39,5.217.381,5.482L45.023,32.492l-3.286-7.6ZM33.628,58.842l-5.537-2.395,8.328-19.259,3.286,7.6Zm14.186,0L27.8,12.556c-.008-.265.011-1.335.381-5.482a.524.524,0,0,1,.9-.389c3.274,2.57,4.067,3.289,4.255,3.477L53.352,56.448Z" transform="translate(-13.46 -4.665)" fill="#fd7d00"/>
</svg>
