<svg xmlns="http://www.w3.org/2000/svg" xmlns:xlink="http://www.w3.org/1999/xlink" width="129.39" height="56.336" viewBox="0 0 129.39 56.336">
  <defs>
    <clipPath id="clip-path">
      <rect id="Прямоугольник_32094" data-name="Прямоугольник 32094" width="55.929" height="55.926" fill="#ff6900"/>
    </clipPath>
  </defs>
  <g id="Сгруппировать_30099" data-name="Сгруппировать 30099" transform="translate(-704 -1497.663)">
    <g id="Сгруппировать_30098" data-name="Сгруппировать 30098" transform="translate(-3)">
      <path id="Контур_39733" data-name="Контур 39733" d="M13.792,11.135H11.223V6.65a.932.932,0,1,0-1.864,0v4.485H6.79A.932.932,0,0,0,6.79,13H9.359V60.466a.932.932,0,1,0,1.864,0V13h2.569a.932.932,0,1,0,0-1.864Z" transform="translate(701.142 1492.6)" fill="#ff6900"/>
      <path id="Контур_39734" data-name="Контур 39734" d="M87.806,11.135H85.237V6.65a.932.932,0,0,0-1.864,0v4.485H80.8A.932.932,0,1,0,80.8,13h2.569V60.466a.932.932,0,1,0,1.864,0V13h2.569a.932.932,0,0,0,0-1.864Z" transform="translate(673.115 1492.6)" fill="#ff6900"/>
      <path id="Контур_39735" data-name="Контур 39735" d="M46.006,34.765a.932.932,0,0,0,.18-.265l9.219-21.319c.122-.283.228-.528-.285-6.272a2.382,2.382,0,0,0-3.908-1.689c-4.538,3.56-4.643,3.805-4.766,4.088L40.722,22.546,35,9.308c-.122-.283-.228-.528-4.766-4.088a2.382,2.382,0,0,0-3.908,1.69c-.513,5.745-.408,5.989-.285,6.272l9.366,21.659L26.011,56.564A.932.932,0,0,0,26.5,57.79l7.248,3.135a.932.932,0,0,0,1.225-.485l5.752-13.3,5.752,13.3a.93.93,0,0,0,1.225.485l7.248-3.135a.932.932,0,0,0,.485-1.225Zm2.1-24.6c.188-.188.981-.907,4.255-3.477a.524.524,0,0,1,.9.389c.371,4.147.39,5.217.381,5.482L45.023,32.492l-3.286-7.6ZM33.628,58.842l-5.537-2.395,8.328-19.259,3.286,7.6Zm14.186,0L27.8,12.556c-.008-.265.011-1.335.381-5.482a.524.524,0,0,1,.9-.389c3.274,2.57,4.067,3.289,4.255,3.477L53.352,56.448Z" transform="translate(693.54 1492.999)" fill="#ff6900"/>
    </g>
    <g id="Сгруппировать_30097" data-name="Сгруппировать 30097" transform="translate(777.461 1497.664)">
      <g id="Сгруппировать_30096" data-name="Сгруппировать 30096" clip-path="url(#clip-path)">
        <path id="Контур_50204" data-name="Контур 50204" d="M0,44.023c.149-.671.262-1.353.454-2.012a10.586,10.586,0,0,1,2.739-4.586Q20.308,20.307,37.427,3.192a10.6,10.6,0,0,1,6.288-3.1A1.938,1.938,0,0,0,44.023,0h2.185a25.387,25.387,0,0,1,2.825.758A10.811,10.811,0,0,1,52.939,18.3c-.137.146-.279.287-.42.429Q35.585,35.662,18.654,52.6A10.835,10.835,0,0,1,.1,46.566a2.4,2.4,0,0,0-.1-.358V44.023M10.353,54.116a9.352,9.352,0,0,0,6.972-2.826Q34.249,34.349,51.186,17.422c.219-.219.434-.442.639-.673A8.961,8.961,0,0,0,38.638,4.619Q21.991,21.257,5.352,37.9c-.437.437-.9.857-1.293,1.331A8.611,8.611,0,0,0,2.65,48.864a8.529,8.529,0,0,0,7.7,5.252" fill="#ff6900"/>
        <path id="Контур_50205" data-name="Контур 50205" d="M234.711,70.39a2.608,2.608,0,0,1-1.93-.765c-1.962-1.95-3.934-3.892-5.863-5.875a2.738,2.738,0,0,1,.088-3.926,2.788,2.788,0,0,1,3.979-.188c2.02,1.943,4,3.931,5.946,5.945a2.537,2.537,0,0,1,.473,2.992,2.921,2.921,0,0,1-2.692,1.818m1.1-3.056a2.109,2.109,0,0,0-.314-.568q-2.835-2.867-5.7-5.7a.916.916,0,0,0-1.436.053.933.933,0,0,0-.014,1.44c.285.3.588.593.884.888q2.35,2.351,4.7,4.7a.961.961,0,0,0,1.13.3,1.213,1.213,0,0,0,.752-1.107" transform="translate(-190.899 -49.713)" fill="#ff6900"/>
        <path id="Контур_50206" data-name="Контур 50206" d="M58.588,229.293a2.84,2.84,0,0,1,1.763-2.468,2.582,2.582,0,0,1,3.047.44q3.049,2.934,5.985,5.983a2.9,2.9,0,0,1-4.1,4.066c-2.03-1.959-4.006-3.974-5.989-5.981a2.691,2.691,0,0,1-.7-2.041m2.87-1.052a5.132,5.132,0,0,0-.913.89.867.867,0,0,0,.246,1.086c1.868,1.865,3.728,3.737,5.6,5.6a.959.959,0,0,0,1.49,0,.931.931,0,0,0-.026-1.479q-2.771-2.789-5.562-5.559a5.161,5.161,0,0,0-.837-.529" transform="translate(-49.46 -191.229)" fill="#ff6900"/>
      </g>
    </g>
  </g>
</svg>
